<svg viewBox="0 0 1280 318" fill="none" xmlns="http://www.w3.org/2000/svg">
<path d="M-1 0H1280V40.068H-1V0Z" fill="#00748C"/>
<path d="M-1 40.068H1280V79.5H-1V40.068Z" fill="#00B4DA"/>
<path d="M-1 79.5H1280V119.568H-1V79.5Z" fill="#5AE2FF"/>
<path d="M-1 119.568H1280V159H-1V119.568Z" fill="#ACF0FF"/>
<path d="M-1 318H1280V277.932H-1V318Z" fill="#00748C"/>
<path d="M-1 277.932H1280V238.5H-1V277.932Z" fill="#00B4DA"/>
<path d="M-1 238.5H1280V198.432H-1V238.5Z" fill="#5AE2FF"/>
<path d="M-1 198.432H1280V159H-1V198.432Z" fill="#ACF0FF"/>
<path d="M-1 148.824H1280V168.54H-1V148.824Z" fill="#DDF9FF"/>
<rect width="126.076" height="218.741" transform="matrix(-1 0 0 1 765.091 49.5831)" fill="#7D5CA7"/>
<rect width="126.076" height="144.987" transform="matrix(-1 0 0 1 828.129 86.1451)" fill="#7D5CA7"/>
<rect width="94.5568" height="72.4936" transform="matrix(-1 0 0 1 891.167 122.077)" fill="#7D5CA7"/>
<rect x="512.939" y="49.5832" width="126.076" height="218.741" fill="#7D5CA7"/>
<rect x="449.901" y="86.145" width="126.076" height="144.987" fill="#7D5CA7"/>
<rect x="386.864" y="122.077" width="94.5568" height="72.4936" fill="#7D5CA7"/>
<rect x="575.977" y="13.6515" width="126.076" height="289.974" fill="#7D5CA7"/>
<rect x="512.939" y="49.5831" width="17.0202" height="17.0202" fill="#D9D9D9"/>
<rect x="512.939" y="49.5831" width="7.56455" height="7.56455" fill="white"/>
<rect x="575.977" y="13.6515" width="17.0202" height="17.0202" fill="#D9D9D9"/>
<rect x="575.977" y="13.6515" width="7.56455" height="7.56455" fill="white"/>
<rect x="386.864" y="122.077" width="17.0202" height="17.0202" fill="#D9D9D9"/>
<rect x="386.864" y="122.077" width="7.56455" height="7.56455" fill="white"/>
<rect x="449.901" y="86.1451" width="17.0202" height="17.0202" fill="#D9D9D9"/>
<rect x="449.901" y="86.1451" width="7.56455" height="7.56455" fill="white"/>
<rect width="17.0202" height="17.0202" transform="matrix(-1 0 0 1 765.091 49.5831)" fill="#D9D9D9"/>
<rect width="7.56455" height="7.56455" transform="matrix(-1 0 0 1 765.091 49.5831)" fill="white"/>
<rect width="17.0202" height="17.0202" transform="matrix(-1 0 0 1 702.053 13.6515)" fill="#D9D9D9"/>
<rect width="7.56455" height="7.56455" transform="matrix(-1 0 0 1 702.053 13.6515)" fill="white"/>
<rect width="17.0202" height="17.0202" transform="matrix(-1 0 0 1 891.167 122.077)" fill="#D9D9D9"/>
<rect width="7.56455" height="7.56455" transform="matrix(-1 0 0 1 891.167 122.077)" fill="white"/>
<rect width="17.0202" height="17.0202" transform="matrix(-1 0 0 1 828.129 86.1451)" fill="#D9D9D9"/>
<rect width="7.56455" height="7.56455" transform="matrix(-1 0 0 1 828.129 86.1451)" fill="white"/>
<rect width="17.0202" height="17.0202" transform="matrix(1 0 0 -1 512.939 268.325)" fill="#D9D9D9"/>
<rect width="7.56455" height="7.56455" transform="matrix(1 0 0 -1 512.939 268.325)" fill="white"/>
<rect width="17.0202" height="17.0202" transform="matrix(1 0 0 -1 575.977 303.626)" fill="#D9D9D9"/>
<rect width="7.56455" height="7.56455" transform="matrix(1 0 0 -1 575.977 303.626)" fill="white"/>
<rect width="17.0202" height="17.0202" transform="matrix(1 0 0 -1 386.864 195.201)" fill="#D9D9D9"/>
<rect width="7.56455" height="7.56455" transform="matrix(1 0 0 -1 386.864 195.201)" fill="white"/>
<rect width="17.0202" height="17.0202" transform="matrix(1 0 0 -1 449.901 231.132)" fill="#D9D9D9"/>
<rect width="7.56455" height="7.56455" transform="matrix(1 0 0 -1 449.901 231.132)" fill="white"/>
<rect x="765.091" y="268.325" width="17.0202" height="17.0202" transform="rotate(180 765.091 268.325)" fill="#D9D9D9"/>
<rect x="765.091" y="268.325" width="7.56455" height="7.56455" transform="rotate(180 765.091 268.325)" fill="white"/>
<rect x="702.053" y="303.626" width="17.0202" height="17.0202" transform="rotate(180 702.053 303.626)" fill="#D9D9D9"/>
<rect x="702.053" y="303.626" width="7.56455" height="7.56455" transform="rotate(180 702.053 303.626)" fill="white"/>
<rect x="891.167" y="195.201" width="17.0202" height="17.0202" transform="rotate(180 891.167 195.201)" fill="#D9D9D9"/>
<rect x="891.167" y="195.201" width="7.56455" height="7.56455" transform="rotate(180 891.167 195.201)" fill="white"/>
<rect x="828.129" y="231.132" width="17.0202" height="17.0202" transform="rotate(180 828.129 231.132)" fill="#D9D9D9"/>
<rect x="828.129" y="231.132" width="7.56455" height="7.56455" transform="rotate(180 828.129 231.132)" fill="white"/>
<path d="M891.167 158.598L639.015 13.6515V303.545L891.167 158.598Z" fill="#E8D52C"/>
<path d="M386.864 158.598L639.015 13.6515V303.545L386.864 158.598Z" fill="#E8D52C"/>
<path d="M639.323 20.5837L400.41 158.598H639.323V20.5837Z" fill="#295625"/>
<path d="M639.323 296.613L400.41 158.598H639.323V296.613Z" fill="#3F2C0F"/>
<path d="M627.008 40.7503L445.36 145.364H627.008V40.7503Z" fill="#46923F"/>
<path d="M614.693 62.1772L491.542 132.76H614.693V62.1772Z" fill="#7ED975"/>
<path d="M627.008 275.186L445.36 170.572H627.008V275.186Z" fill="#875F21"/>
<path d="M639.323 297.243L400.41 159.229H639.323V297.243Z" fill="#3F1B0F"/>
<path d="M627.008 275.816L445.36 171.203H627.008V275.816Z" fill="#983425"/>
<path d="M614.693 254.39L491.542 183.807H614.693V254.39Z" fill="#F56639"/>
<path d="M638.692 297.243L877.605 159.229H638.692V297.243Z" fill="#295625"/>
<path d="M651.638 277.077L833.286 172.463H651.638V277.077Z" fill="#46923F"/>
<path d="M663.953 255.65L787.104 185.067H663.953V255.65Z" fill="#7ED975"/>
<path d="M639.323 21.2141L878.235 159.229H639.323V21.2141Z" fill="#3F1B0F"/>
<path d="M651.638 42.6409L833.286 147.255H651.638V42.6409Z" fill="#983425"/>
<path d="M663.953 64.0678L787.104 134.651H663.953V64.0678Z" fill="#F56639"/>
<path d="M1280 52L1072 52" stroke="#E8D52C" stroke-width="8"/>
<path d="M1079.72 15.3564C1053.06 18.8427 1036.06 26.7253 1023.4 42.5445C1033.03 52.3652 1042.48 58.4122 1052.38 62.1669C1060.7 65.325 1069.49 66.9151 1079.22 67.6662C1073.27 59.3956 1069.92 51.6174 1069.88 43.1408C1069.83 34.4165 1073.31 25.5793 1079.72 15.3564Z" stroke="#E8D52C" stroke-width="8"/>
<path d="M884.05 159.707L925.857 159.707" stroke="#E8D52C" stroke-width="6"/>
<path d="M1010.74 135.001L961.5 159.398L1010.74 183.794L1010.74 135.001Z" stroke="#E8D52C" stroke-width="8"/>
<circle cx="16.0606" cy="16.0606" r="16.0606" transform="matrix(-1 0 0 1 1063.82 142.136)" fill="#E8D52C"/>
<rect width="15.2576" height="30.5152" transform="matrix(-1 0 0 1 1095.94 142.136)" fill="#E8D52C"/>
<circle cx="13.6261" cy="13.6261" r="9.62612" transform="matrix(-1 0 0 1 953.11 145.462)" stroke="#E8D52C" stroke-width="8"/>
<circle cx="13.6261" cy="13.6261" r="9.62612" transform="matrix(-1 0 0 1 1018.76 30.2591)" stroke="#E8D52C" stroke-width="8"/>
<line x1="1281" y1="31" x2="1075" y2="31" stroke="#E8D52C" stroke-width="8"/>
<line x1="1280" y1="267" x2="1072" y2="267" stroke="#E8D52C" stroke-width="8"/>
<path d="M1079.72 302.568C1053.06 299.081 1036.06 291.199 1023.4 275.379C1033.03 265.559 1042.48 259.512 1052.38 255.757C1060.7 252.599 1069.49 251.009 1079.22 250.258C1073.27 258.528 1069.92 266.307 1069.88 274.783C1069.83 283.507 1073.31 292.345 1079.72 302.568Z" stroke="#E8D52C" stroke-width="8"/>
<circle cx="1005.14" cy="275.277" r="9.62612" transform="rotate(180 1005.14 275.277)" stroke="#E8D52C" stroke-width="8"/>
<line x1="1281" y1="289" x2="1075" y2="289" stroke="#E8D52C" stroke-width="8"/>
<path d="M994.298 276.768H966.736L958.374 299.994L943.2 264.071L931.122 299.994L921.522 264.071L907.276 299.994L899.225 276.768L796.409 273.052L1027.43 222.264H907.276V160.946" stroke="#E8D52C" stroke-width="8" stroke-miterlimit="16"/>
<path d="M994.298 42.3369H966.736L958.374 19.1106L943.2 55.034L931.122 19.1106L921.522 55.034L907.276 19.1106L899.225 42.3369L798.267 45.7435L1027.43 96.8414H907.276V158.159" stroke="#E8D52C" stroke-width="8" stroke-miterlimit="16"/>
<circle cx="16.0606" cy="16.0606" r="16.0606" transform="matrix(-1 0 0 1 1144.92 142.136)" fill="#E8D52C"/>
<rect width="14.4545" height="30.5152" transform="matrix(-1 0 0 1 1176.24 142.136)" fill="#E8D52C"/>
<ellipse cx="16.4621" cy="16.0606" rx="16.4621" ry="16.0606" transform="matrix(-1 0 0 1 1226.03 142.136)" fill="#E8D52C"/>
<rect width="15.2576" height="30.5152" transform="matrix(-1 0 0 1 1258.15 142.136)" fill="#E8D52C"/>
<path d="M0 52L208 52" stroke="#E8D52C" stroke-width="8"/>
<path d="M198.312 15.3564C224.973 18.8427 241.972 26.7253 254.633 42.5445C244.997 52.3652 235.553 58.4122 225.654 62.1669C217.328 65.325 208.541 66.9151 198.81 67.6662C204.757 59.3956 208.11 51.6174 208.153 43.1408C208.198 34.4165 204.723 25.5793 198.312 15.3564Z" stroke="#E8D52C" stroke-width="8"/>
<path d="M393.98 159.707L352.173 159.707" stroke="#E8D52C" stroke-width="6"/>
<path d="M267.293 135.001L316.531 159.398L267.293 183.794L267.293 135.001Z" stroke="#E8D52C" stroke-width="8"/>
<circle cx="230.273" cy="158.197" r="16.0606" fill="#E8D52C"/>
<rect x="182.091" y="142.136" width="15.2576" height="30.5152" fill="#E8D52C"/>
<circle cx="338.547" cy="159.088" r="9.62612" stroke="#E8D52C" stroke-width="8"/>
<circle cx="272.894" cy="43.8852" r="9.62612" stroke="#E8D52C" stroke-width="8"/>
<path d="M0 31L203 31" stroke="#E8D52C" stroke-width="8"/>
<path d="M-1.50008 266.902L207.501 266.902" stroke="#E8D52C" stroke-width="8"/>
<path d="M198.312 302.568C224.973 299.081 241.972 291.199 254.633 275.379C244.997 265.559 235.553 259.512 225.654 255.757C217.328 252.599 208.541 251.009 198.81 250.258C204.757 258.528 208.11 266.307 208.153 274.783C208.198 283.507 204.723 292.345 198.312 302.568Z" stroke="#E8D52C" stroke-width="8"/>
<circle cx="13.6261" cy="13.6261" r="9.62612" transform="matrix(1 0 0 -1 259.268 288.904)" stroke="#E8D52C" stroke-width="8"/>
<line y1="-4" x2="204.215" y2="-4" transform="matrix(0.999999 0.0014458 0.0014458 -0.999999 -1 284.273)" stroke="#E8D52C" stroke-width="8"/>
<path d="M283.733 276.768H311.295L319.656 299.994L334.831 264.071L346.908 299.994L356.508 264.071L370.754 299.994L378.806 276.768L481.621 273.052L250.596 222.264H370.754V160.946" stroke="#E8D52C" stroke-width="8" stroke-miterlimit="16"/>
<path d="M283.733 42.3369H311.295L319.656 19.1106L334.831 55.034L346.908 19.1106L356.508 55.034L370.754 19.1106L378.806 42.3369L479.763 45.7435L250.596 96.8414H370.754V158.159" stroke="#E8D52C" stroke-width="8" stroke-miterlimit="16"/>
<circle cx="149.167" cy="158.197" r="16.0606" fill="#E8D52C"/>
<rect x="101.788" y="142.136" width="14.4545" height="30.5152" fill="#E8D52C"/>
<ellipse cx="68.4621" cy="158.197" rx="16.4621" ry="16.0606" fill="#E8D52C"/>
<rect x="19.8788" y="142.136" width="15.2576" height="30.5152" fill="#E8D52C"/>
<path d="M638.931 264.026C649.738 252.815 656.602 236.769 658.683 230.147C663.827 176.118 645.836 160.498 636.197 159.442C623.691 183.944 622.686 206.243 625.299 228.243C627.389 245.844 635.258 259.432 638.931 264.026Z" fill="#DDDADA" stroke="#A5A5A5" stroke-width="4" stroke-miterlimit="16"/>
<path d="M550.814 106.368C554.86 120.686 564.951 134.123 569.49 139.051C612.446 169.556 634.598 162.397 640.305 155.004C625.908 132.826 607.621 121.153 587.777 112.593C571.903 105.745 556.521 105.59 550.814 106.368Z" fill="#DDDADA" stroke="#A5A5A5" stroke-width="4" stroke-miterlimit="16"/>
<path d="M733.052 108.951C718.688 104.888 701.709 106.627 695.016 108.005C645.323 129.644 639.062 153.007 642.143 161.983C668.911 161.105 688.955 151.193 707.231 138.247C721.852 127.891 730.537 114.402 733.052 108.951Z" fill="#DDDADA" stroke="#A5A5A5" stroke-width="4" stroke-miterlimit="16"/>
<path fill-rule="evenodd" clip-rule="evenodd" d="M640.196 36.3924C641.129 40.2532 647.101 50.7521 663.657 59.3573C672.115 63.7539 678.21 68.1505 682.401 71.8793C686.51 75.5352 688.843 78.5975 689.742 80.427C692.177 84.1236 696.735 93.964 696.099 104.802C695.283 118.713 684.264 130.66 662.725 138.119C646.361 143.785 644.816 151.756 645.535 154.691C647.709 156.741 655.515 159.118 668.576 147.665C685.728 132.625 701.544 128.967 713.997 135.163C723.697 139.99 729.956 148.842 731.948 152.796C733.086 154.487 734.58 158.036 735.706 163.427C736.855 168.925 737.636 176.411 737.244 185.955C736.477 204.633 742.604 215.041 745.484 217.771L750 221.807L744.505 220.27C740.698 219.166 728.642 219.15 712.971 229.285C704.965 234.463 698.132 237.584 692.822 239.38C687.616 241.14 683.806 241.649 681.776 241.524C677.366 241.807 666.581 240.889 657.512 234.955C645.87 227.339 640.995 211.819 645.229 189.373C646.879 180.624 646.156 174.651 644.665 170.828C643.252 167.206 641.198 165.597 639.835 165.177C636.962 166.125 631.045 171.651 634.85 188.547C639.867 210.83 635.539 226.512 624.171 234.533C615.315 240.783 604.569 242.08 600.152 241.952C598.127 242.149 594.302 241.774 589.038 240.198C583.668 238.59 576.73 235.711 568.547 230.818C552.531 221.242 540.483 221.682 536.717 222.919L530 225.696L534.991 220.866C537.774 218.037 543.532 207.419 542.112 188.779C541.386 179.256 541.904 171.746 542.86 166.211C543.796 160.784 545.165 157.184 546.243 155.454C548.096 151.433 554.04 142.366 563.566 137.201C575.793 130.57 591.728 133.669 609.396 148.096C616.302 153.736 621.641 156.002 625.449 156.566C629.055 157.099 631.214 156.109 632.201 155.101C632.932 152.184 631.419 144.188 615.016 138.508C593.477 131.049 582.458 119.102 581.641 105.191C581.005 94.353 585.564 84.5126 587.999 80.816C588.898 78.9865 591.23 75.9242 595.339 72.2682C599.53 68.5395 605.625 64.1429 614.084 59.7462C630.64 51.141 636.611 40.6422 637.545 36.7813L638.959 32L640.196 36.3924ZM638.959 39.7396C641.512 45.1981 648.415 54.0637 662.585 61.429C670.888 65.7448 676.821 70.0347 680.856 73.6247C684.916 77.2367 686.999 80.0912 687.68 81.5123L687.715 81.5863L687.761 81.6547C689.994 85.0121 694.377 94.4097 693.775 104.665C693.04 117.202 683.106 128.592 661.965 135.913C644.671 141.902 641.928 151.1 643.388 155.654L643.466 155.896L643.637 156.084C646.875 159.636 656.369 161.47 670.109 149.422C686.945 134.659 701.74 131.67 712.961 137.254C722.141 141.821 728.103 150.301 729.902 153.91L729.938 153.984L729.985 154.052C730.878 155.349 732.315 158.579 733.428 163.905C734.533 169.198 735.303 176.491 734.918 185.859C734.246 202.231 738.72 212.753 742.221 217.532C736.226 217.044 725.122 218.65 711.709 227.324C703.85 232.406 697.19 235.439 692.078 237.168C686.934 238.908 683.428 239.304 681.86 239.19L681.778 239.185L681.696 239.19C677.68 239.466 667.366 238.616 658.784 233.001C648.293 226.137 643.361 211.839 647.516 189.807C649.222 180.765 648.528 174.322 646.833 169.978C645.153 165.671 642.431 163.329 640.059 162.826L639.797 162.771L639.537 162.835C634.906 163.989 628.551 171.17 632.579 189.061C637.504 210.933 633.075 225.396 622.831 232.625C614.451 238.538 604.173 239.752 600.15 239.617L600.068 239.614L599.987 239.623C598.423 239.792 594.905 239.519 589.704 237.962C584.535 236.414 577.772 233.617 569.74 228.814C555.701 220.42 544.341 219.349 538.481 220.157C541.766 215.107 545.649 204.555 544.433 188.601C543.72 179.253 544.234 171.938 545.154 166.609C546.079 161.247 547.402 157.969 548.249 156.64L548.293 156.571L548.327 156.496C549.999 152.826 555.66 144.141 564.673 139.253C575.693 133.278 590.583 135.745 607.925 149.906C615.023 155.701 620.744 158.229 625.109 158.875C629.472 159.52 632.567 158.283 634.131 156.442L634.281 156.264L634.352 156.043C635.813 151.489 633.07 142.291 615.776 136.302C594.634 128.981 584.701 117.591 583.965 105.054C583.364 94.7986 587.747 85.401 589.98 82.0436L590.025 81.9753L590.061 81.9013C590.741 80.4801 592.825 77.6256 596.885 74.0136C600.919 70.4237 606.853 66.1337 615.156 61.818C629.668 54.2751 636.558 45.1585 638.959 39.7396Z" fill="#B5B5B5"/>
<path d="M638.959 39.7396C641.512 45.1981 648.415 54.0637 662.585 61.429C670.888 65.7448 676.821 70.0347 680.856 73.6247C684.916 77.2367 686.999 80.0912 687.68 81.5123L687.715 81.5863L687.761 81.6547C689.994 85.0121 694.377 94.4097 693.775 104.665C693.04 117.202 683.106 128.592 661.965 135.913C644.671 141.902 641.928 151.1 643.388 155.654L643.466 155.896L643.637 156.084C646.875 159.636 656.369 161.47 670.109 149.422C686.945 134.659 701.74 131.67 712.961 137.254C722.141 141.821 728.103 150.301 729.902 153.91L729.938 153.984L729.985 154.052C730.878 155.349 732.315 158.579 733.428 163.905C734.533 169.198 735.303 176.491 734.918 185.859C734.246 202.231 738.72 212.753 742.221 217.532C736.226 217.044 725.122 218.65 711.709 227.324C703.85 232.406 697.19 235.439 692.078 237.168C686.934 238.908 683.428 239.304 681.86 239.19L681.778 239.185L681.696 239.19C677.68 239.466 667.366 238.616 658.784 233.001C648.293 226.137 643.361 211.839 647.516 189.807C649.222 180.765 648.528 174.322 646.833 169.978C645.153 165.671 642.431 163.329 640.059 162.826L639.797 162.771L639.537 162.835C634.906 163.989 628.551 171.17 632.579 189.061C637.504 210.933 633.075 225.396 622.831 232.625C614.451 238.538 604.173 239.752 600.15 239.617L600.068 239.614L599.987 239.623C598.423 239.792 594.905 239.519 589.704 237.962C584.535 236.414 577.772 233.617 569.74 228.814C555.701 220.42 544.341 219.349 538.481 220.157C541.766 215.107 545.649 204.555 544.433 188.601C543.72 179.253 544.234 171.938 545.154 166.609C546.079 161.247 547.402 157.969 548.249 156.64L548.293 156.571L548.327 156.496C549.999 152.826 555.66 144.141 564.673 139.253C575.693 133.278 590.583 135.745 607.925 149.906C615.023 155.701 620.744 158.229 625.109 158.875C629.472 159.52 632.567 158.283 634.131 156.442L634.281 156.264L634.352 156.043C635.813 151.489 633.07 142.291 615.776 136.302C594.634 128.981 584.701 117.591 583.965 105.054C583.364 94.7986 587.747 85.401 589.98 82.0436L590.025 81.9753L590.061 81.9013C590.741 80.4801 592.825 77.6256 596.885 74.0136C600.919 70.4237 606.853 66.1337 615.156 61.818C629.668 54.2751 636.558 45.1585 638.959 39.7396Z" fill="#F2F2F2"/>
<mask id="mask0_155_419" style="mask-type:alpha" maskUnits="userSpaceOnUse" x="529" y="32" width="221" height="210">
<path fill-rule="evenodd" clip-rule="evenodd" d="M639.696 36.3924C640.634 40.2532 646.633 50.7521 663.264 59.3573C671.761 63.7539 677.884 68.1505 682.094 71.8793C686.222 75.5352 688.565 78.5975 689.468 80.427C691.914 84.1236 696.493 93.964 695.854 104.802C695.034 118.713 683.965 130.66 662.328 138.119C645.89 143.785 644.338 151.756 645.06 154.691C647.244 156.741 655.086 159.118 668.206 147.665C685.436 132.625 701.324 128.967 713.833 135.163C723.578 139.99 729.865 148.842 731.866 152.796C733.009 154.487 734.51 158.036 735.641 163.427C736.795 168.925 737.58 176.411 737.186 185.955C736.416 204.633 742.571 215.041 745.464 217.771L750 221.807L744.48 220.27C740.656 219.166 728.545 219.15 712.803 229.285C704.76 234.463 697.896 237.584 692.562 239.38C687.333 241.14 683.506 241.649 681.466 241.524C677.036 241.807 666.202 240.889 657.091 234.955C645.397 227.339 640.499 211.819 644.752 189.373C646.41 180.624 645.684 174.651 644.186 170.828C642.767 167.206 640.703 165.597 639.334 165.177C636.448 166.125 630.505 171.651 634.326 188.547C639.367 210.83 635.019 226.512 623.599 234.533C614.703 240.783 603.908 242.08 599.471 241.952C597.437 242.149 593.594 241.774 588.306 240.198C582.912 238.59 575.943 235.711 567.722 230.818C551.633 221.242 539.53 221.682 535.747 222.919L529 225.696L534.014 220.866C536.809 218.037 542.594 207.419 541.167 188.779C540.437 179.256 540.959 171.746 541.918 166.211C542.859 160.784 544.234 157.184 545.317 155.454C547.178 151.433 553.149 142.366 562.718 137.201C575.002 130.57 591.008 133.669 608.757 148.096C615.694 153.736 621.057 156.002 624.883 156.566C628.506 157.099 630.675 156.109 631.665 155.101C632.4 152.184 630.88 144.188 614.402 138.508C592.765 131.049 581.696 119.102 580.876 105.191C580.237 94.353 584.816 84.5126 587.262 80.816C588.166 78.9865 590.508 75.9242 594.636 72.2682C598.846 68.5395 604.969 64.1429 613.466 59.7462C630.097 51.141 636.096 40.6422 637.034 36.7813L638.454 32L639.696 36.3924ZM638.454 39.7396C641.019 45.1981 647.953 54.0637 662.188 61.429C670.528 65.7448 676.488 70.0347 680.542 73.6247C684.62 77.2367 686.713 80.0912 687.397 81.5123L687.432 81.5863L687.478 81.6547C689.721 85.0121 694.124 94.4097 693.52 104.665C692.781 117.202 682.802 128.592 661.564 135.913C644.192 141.902 641.437 151.1 642.904 155.654L642.982 155.896L643.154 156.084C646.406 159.636 655.943 161.47 669.746 149.422C686.658 134.659 701.52 131.67 712.793 137.254C722.014 141.821 728.003 150.301 729.81 153.91L729.847 153.984L729.894 154.052C730.791 155.349 732.235 158.579 733.352 163.905C734.463 169.198 735.236 176.491 734.85 185.859C734.174 202.231 738.669 212.753 742.185 217.532C736.164 217.044 725.009 218.65 711.535 227.324C703.64 232.406 696.95 235.439 691.814 237.168C686.648 238.908 683.126 239.304 681.55 239.19L681.468 239.185L681.386 239.19C677.352 239.466 666.99 238.616 658.37 233.001C647.831 226.137 642.876 211.839 647.05 189.807C648.764 180.765 648.067 174.322 646.364 169.978C644.676 165.671 641.942 163.329 639.559 162.826L639.296 162.771L639.035 162.835C634.383 163.989 627.998 171.17 632.045 189.061C636.992 210.933 632.544 225.396 622.253 232.625C613.835 238.538 603.51 239.752 599.469 239.617L599.387 239.614L599.305 239.623C597.734 239.792 594.2 239.519 588.975 237.962C583.783 236.414 576.989 233.617 568.92 228.814C554.818 220.42 543.406 219.349 537.52 220.157C540.819 215.107 544.72 204.555 543.499 188.601C542.783 179.253 543.299 171.938 544.222 166.609C545.152 161.247 546.481 157.969 547.332 156.64L547.376 156.571L547.411 156.496C549.09 152.826 554.776 144.141 563.831 139.253C574.9 133.278 589.859 135.745 607.28 149.906C614.41 155.701 620.156 158.229 624.542 158.875C628.924 159.52 632.033 158.283 633.604 156.442L633.755 156.264L633.827 156.043C635.294 151.489 632.538 142.291 615.166 136.302C593.928 128.981 583.95 117.591 583.211 105.054C582.606 94.7986 587.01 85.401 589.253 82.0436L589.298 81.9753L589.334 81.9013C590.017 80.4801 592.111 77.6256 596.189 74.0136C600.242 70.4237 606.202 66.1337 614.543 61.818C629.121 54.2751 636.042 45.1585 638.454 39.7396Z" fill="#B5B5B5"/>
<path d="M638.454 39.7396C641.019 45.1981 647.953 54.0637 662.188 61.429C670.528 65.7448 676.488 70.0347 680.542 73.6247C684.62 77.2367 686.713 80.0912 687.397 81.5123L687.432 81.5863L687.478 81.6547C689.721 85.0121 694.124 94.4097 693.52 104.665C692.781 117.202 682.802 128.592 661.564 135.913C644.192 141.902 641.437 151.1 642.904 155.654L642.982 155.896L643.154 156.084C646.406 159.636 655.943 161.47 669.746 149.422C686.658 134.659 701.52 131.67 712.793 137.254C722.014 141.821 728.003 150.301 729.81 153.91L729.847 153.984L729.894 154.052C730.791 155.349 732.235 158.579 733.352 163.905C734.463 169.198 735.236 176.491 734.85 185.859C734.174 202.231 738.669 212.753 742.185 217.532C736.164 217.044 725.009 218.65 711.535 227.324C703.64 232.406 696.95 235.439 691.814 237.168C686.648 238.908 683.126 239.304 681.55 239.19L681.468 239.185L681.386 239.19C677.352 239.466 666.99 238.616 658.37 233.001C647.831 226.137 642.876 211.839 647.05 189.807C648.764 180.765 648.067 174.322 646.364 169.978C644.676 165.671 641.942 163.329 639.559 162.826L639.296 162.771L639.035 162.835C634.383 163.989 627.998 171.17 632.045 189.061C636.992 210.933 632.544 225.396 622.253 232.625C613.835 238.538 603.51 239.752 599.469 239.617L599.387 239.614L599.305 239.623C597.734 239.792 594.2 239.519 588.975 237.962C583.783 236.414 576.989 233.617 568.92 228.814C554.818 220.42 543.406 219.349 537.52 220.157C540.819 215.107 544.72 204.555 543.499 188.601C542.783 179.253 543.299 171.938 544.222 166.609C545.152 161.247 546.481 157.969 547.332 156.64L547.376 156.571L547.411 156.496C549.09 152.826 554.776 144.141 563.831 139.253C574.9 133.278 589.859 135.745 607.28 149.906C614.41 155.701 620.156 158.229 624.542 158.875C628.924 159.52 632.033 158.283 633.604 156.442L633.755 156.264L633.827 156.043C635.294 151.489 632.538 142.291 615.166 136.302C593.928 128.981 583.95 117.591 583.211 105.054C582.606 94.7986 587.01 85.401 589.253 82.0436L589.298 81.9753L589.334 81.9013C590.017 80.4801 592.111 77.6256 596.189 74.0136C600.242 70.4237 606.202 66.1337 614.543 61.818C629.121 54.2751 636.042 45.1585 638.454 39.7396Z" fill="#F2F2F2"/>
</mask>
<g mask="url(#mask0_155_419)">
<path d="M638.916 109.911C669.001 131.163 678.215 147.465 681.327 183.995C647.173 193.59 628.711 192.564 596.505 183.995C603.51 146.488 611.83 129.401 638.916 109.911Z" fill="#DC477D"/>
<path d="M639.272 116.354C665.059 134.409 672.957 148.258 675.624 179.293C646.35 187.445 630.525 186.573 602.92 179.293C608.924 147.429 616.056 132.912 639.272 116.354Z" fill="#FFA800"/>
<path d="M638.916 124.23C658.888 138.147 665.005 148.822 667.071 172.745C644.398 179.029 632.141 178.356 610.761 172.745C615.411 148.183 620.935 136.993 638.916 124.23Z" fill="#FFE600"/>
</g>
<path d="M1195.75 306C1195.75 305.573 1195.85 305.184 1196.06 304.832C1196.27 304.48 1196.55 304.201 1196.9 303.992C1197.25 303.784 1197.64 303.68 1198.07 303.68C1198.44 303.68 1198.78 303.759 1199.09 303.918C1199.41 304.077 1199.67 304.294 1199.88 304.57C1200.08 304.844 1200.21 305.154 1200.26 305.5H1199.31C1199.26 305.232 1199.12 305.013 1198.88 304.844C1198.64 304.672 1198.37 304.586 1198.07 304.586C1197.81 304.586 1197.57 304.65 1197.36 304.777C1197.15 304.905 1196.98 305.076 1196.85 305.289C1196.72 305.503 1196.66 305.74 1196.66 306C1196.66 306.26 1196.72 306.497 1196.85 306.711C1196.98 306.924 1197.15 307.095 1197.36 307.223C1197.57 307.35 1197.81 307.414 1198.07 307.414C1198.37 307.414 1198.63 307.329 1198.84 307.16C1199.05 306.988 1199.18 306.768 1199.23 306.5H1200.18C1200.13 306.846 1200.01 307.158 1199.82 307.434C1199.62 307.707 1199.38 307.923 1199.07 308.082C1198.77 308.241 1198.44 308.32 1198.07 308.32C1197.64 308.32 1197.25 308.216 1196.9 308.008C1196.55 307.799 1196.27 307.52 1196.06 307.168C1195.85 306.816 1195.75 306.427 1195.75 306ZM1198.03 310.125C1197.46 310.125 1196.93 310.018 1196.43 309.805C1195.93 309.591 1195.49 309.296 1195.11 308.918C1194.74 308.538 1194.44 308.099 1194.22 307.602C1194.01 307.104 1193.9 306.57 1193.91 306C1193.91 305.43 1194.02 304.896 1194.23 304.398C1194.45 303.901 1194.74 303.464 1195.12 303.086C1195.5 302.706 1195.94 302.409 1196.43 302.195C1196.93 301.982 1197.46 301.875 1198.03 301.875C1198.6 301.875 1199.14 301.982 1199.63 302.195C1200.13 302.409 1200.57 302.706 1200.95 303.086C1201.32 303.464 1201.62 303.901 1201.83 304.398C1202.05 304.896 1202.15 305.43 1202.16 306C1202.16 306.57 1202.05 307.104 1201.84 307.602C1201.63 308.099 1201.33 308.538 1200.95 308.918C1200.58 309.296 1200.14 309.591 1199.64 309.805C1199.14 310.018 1198.6 310.125 1198.03 310.125ZM1198.03 309.219C1198.48 309.219 1198.89 309.135 1199.29 308.969C1199.68 308.802 1200.02 308.572 1200.31 308.277C1200.61 307.983 1200.84 307.642 1201 307.254C1201.17 306.863 1201.25 306.447 1201.25 306.004C1201.25 305.559 1201.16 305.141 1201 304.75C1200.83 304.359 1200.6 304.017 1200.3 303.723C1200.01 303.428 1199.67 303.198 1199.28 303.031C1198.89 302.865 1198.48 302.781 1198.03 302.781C1197.59 302.781 1197.17 302.865 1196.79 303.031C1196.4 303.198 1196.06 303.43 1195.76 303.727C1195.47 304.021 1195.24 304.363 1195.07 304.754C1194.9 305.142 1194.82 305.559 1194.81 306.004C1194.81 306.444 1194.89 306.859 1195.06 307.25C1195.23 307.638 1195.46 307.979 1195.75 308.273C1196.05 308.568 1196.39 308.799 1196.78 308.969C1197.17 309.135 1197.59 309.219 1198.03 309.219ZM1207.46 310H1206.44L1209.38 302H1210.38L1213.32 310H1212.3L1209.91 303.266H1209.85L1207.46 310ZM1207.83 306.875H1211.92V307.734H1207.83V306.875ZM1215.36 306.391V310H1214.44V304H1215.33V304.937H1215.41C1215.55 304.633 1215.76 304.388 1216.05 304.203C1216.33 304.016 1216.7 303.922 1217.16 303.922C1217.56 303.922 1217.92 304.005 1218.22 304.172C1218.53 304.336 1218.76 304.586 1218.93 304.922C1219.1 305.255 1219.19 305.677 1219.19 306.188V310H1218.26V306.25C1218.26 305.779 1218.14 305.411 1217.9 305.148C1217.65 304.883 1217.32 304.75 1216.89 304.75C1216.6 304.75 1216.33 304.814 1216.1 304.941C1215.87 305.069 1215.69 305.255 1215.56 305.5C1215.42 305.745 1215.36 306.042 1215.36 306.391ZM1221.79 306.391V310H1220.87V304H1221.76V304.937H1221.84C1221.98 304.633 1222.19 304.388 1222.48 304.203C1222.77 304.016 1223.14 303.922 1223.59 303.922C1224 303.922 1224.35 304.005 1224.66 304.172C1224.96 304.336 1225.2 304.586 1225.37 304.922C1225.54 305.255 1225.62 305.677 1225.62 306.188V310H1224.7V306.25C1224.7 305.779 1224.58 305.411 1224.33 305.148C1224.09 304.883 1223.75 304.75 1223.32 304.75C1223.03 304.75 1222.77 304.814 1222.54 304.941C1222.31 305.069 1222.13 305.255 1221.99 305.5C1221.86 305.745 1221.79 306.042 1221.79 306.391ZM1229.07 310.141C1228.69 310.141 1228.35 310.069 1228.04 309.926C1227.73 309.78 1227.48 309.57 1227.3 309.297C1227.12 309.021 1227.02 308.687 1227.02 308.297C1227.02 307.953 1227.09 307.674 1227.23 307.461C1227.36 307.245 1227.54 307.076 1227.77 306.953C1228 306.831 1228.25 306.74 1228.52 306.68C1228.8 306.617 1229.07 306.568 1229.35 306.531C1229.72 306.484 1230.01 306.449 1230.24 306.426C1230.47 306.4 1230.64 306.357 1230.74 306.297C1230.85 306.237 1230.9 306.133 1230.9 305.984V305.953C1230.9 305.568 1230.79 305.268 1230.58 305.055C1230.37 304.841 1230.06 304.734 1229.63 304.734C1229.19 304.734 1228.85 304.831 1228.6 305.023C1228.35 305.216 1228.17 305.422 1228.07 305.641L1227.2 305.328C1227.35 304.964 1227.56 304.68 1227.82 304.477C1228.08 304.271 1228.37 304.128 1228.68 304.047C1228.99 303.964 1229.3 303.922 1229.6 303.922C1229.8 303.922 1230.02 303.945 1230.27 303.992C1230.52 304.036 1230.76 304.129 1231 304.27C1231.23 304.41 1231.43 304.622 1231.59 304.906C1231.74 305.19 1231.82 305.57 1231.82 306.047V310H1230.9V309.187H1230.85C1230.79 309.318 1230.69 309.457 1230.54 309.605C1230.39 309.754 1230.2 309.88 1229.96 309.984C1229.72 310.089 1229.42 310.141 1229.07 310.141ZM1229.21 309.312C1229.58 309.312 1229.88 309.241 1230.13 309.098C1230.39 308.954 1230.58 308.77 1230.7 308.543C1230.83 308.316 1230.9 308.078 1230.9 307.828V306.984C1230.86 307.031 1230.77 307.074 1230.64 307.113C1230.51 307.15 1230.36 307.182 1230.19 307.211C1230.02 307.237 1229.85 307.26 1229.69 307.281C1229.53 307.299 1229.4 307.315 1229.31 307.328C1229.07 307.359 1228.84 307.41 1228.63 307.48C1228.43 307.548 1228.26 307.651 1228.13 307.789C1228.01 307.924 1227.95 308.109 1227.95 308.344C1227.95 308.664 1228.06 308.906 1228.3 309.07C1228.54 309.232 1228.84 309.312 1229.21 309.312ZM1243.07 302V310H1242.13L1237.77 303.719H1237.69V310H1236.72V302H1237.66L1242.04 308.297H1242.11V302H1243.07ZM1244.88 310V304H1245.8V310H1244.88ZM1245.35 303C1245.17 303 1245.01 302.939 1244.88 302.816C1244.76 302.694 1244.69 302.547 1244.69 302.375C1244.69 302.203 1244.76 302.056 1244.88 301.934C1245.01 301.811 1245.17 301.75 1245.35 301.75C1245.53 301.75 1245.68 301.811 1245.81 301.934C1245.94 302.056 1246 302.203 1246 302.375C1246 302.547 1245.94 302.694 1245.81 302.816C1245.68 302.939 1245.53 303 1245.35 303ZM1247.32 310V309.297L1250.72 304.922V304.859H1247.43V304H1251.91V304.734L1248.6 309.078V309.141H1252.02V310H1247.32ZM1254.36 306.391V310H1253.44V302H1254.36V304.937H1254.44C1254.58 304.628 1254.79 304.382 1255.07 304.199C1255.36 304.014 1255.74 303.922 1256.21 303.922C1256.62 303.922 1256.97 304.004 1257.28 304.168C1257.59 304.329 1257.83 304.578 1258 304.914C1258.17 305.247 1258.25 305.672 1258.25 306.188V310H1257.33V306.25C1257.33 305.773 1257.21 305.405 1256.96 305.145C1256.72 304.882 1256.38 304.75 1255.94 304.75C1255.64 304.75 1255.37 304.814 1255.13 304.941C1254.89 305.069 1254.7 305.255 1254.57 305.5C1254.43 305.745 1254.36 306.042 1254.36 306.391ZM1262.38 310.125C1261.84 310.125 1261.36 309.996 1260.95 309.738C1260.55 309.48 1260.23 309.12 1260 308.656C1259.77 308.193 1259.66 307.651 1259.66 307.031C1259.66 306.406 1259.77 305.861 1260 305.395C1260.23 304.928 1260.55 304.566 1260.95 304.309C1261.36 304.051 1261.84 303.922 1262.38 303.922C1262.92 303.922 1263.39 304.051 1263.8 304.309C1264.21 304.566 1264.53 304.928 1264.75 305.395C1264.98 305.861 1265.1 306.406 1265.1 307.031C1265.1 307.651 1264.98 308.193 1264.75 308.656C1264.53 309.12 1264.21 309.48 1263.8 309.738C1263.39 309.996 1262.92 310.125 1262.38 310.125ZM1262.38 309.297C1262.79 309.297 1263.13 309.191 1263.39 308.98C1263.66 308.77 1263.86 308.492 1263.98 308.148C1264.11 307.805 1264.17 307.432 1264.17 307.031C1264.17 306.63 1264.11 306.257 1263.98 305.91C1263.86 305.564 1263.66 305.284 1263.39 305.07C1263.13 304.857 1262.79 304.75 1262.38 304.75C1261.97 304.75 1261.63 304.857 1261.36 305.07C1261.1 305.284 1260.9 305.564 1260.77 305.91C1260.64 306.257 1260.58 306.63 1260.58 307.031C1260.58 307.432 1260.64 307.805 1260.77 308.148C1260.9 308.492 1261.1 308.77 1261.36 308.98C1261.63 309.191 1261.97 309.297 1262.38 309.297ZM1267.43 306.391V310H1266.5V304H1267.39V304.937H1267.47C1267.61 304.633 1267.83 304.388 1268.11 304.203C1268.4 304.016 1268.77 303.922 1269.22 303.922C1269.63 303.922 1269.98 304.005 1270.29 304.172C1270.59 304.336 1270.83 304.586 1271 304.922C1271.17 305.255 1271.25 305.677 1271.25 306.188V310H1270.33V306.25C1270.33 305.779 1270.21 305.411 1269.96 305.148C1269.72 304.883 1269.38 304.75 1268.96 304.75C1268.66 304.75 1268.4 304.814 1268.17 304.941C1267.94 305.069 1267.76 305.255 1267.63 305.5C1267.49 305.745 1267.43 306.042 1267.43 306.391ZM1272.94 310V304H1273.86V310H1272.94ZM1273.41 303C1273.23 303 1273.07 302.939 1272.94 302.816C1272.81 302.694 1272.75 302.547 1272.75 302.375C1272.75 302.203 1272.81 302.056 1272.94 301.934C1273.07 301.811 1273.23 301.75 1273.41 301.75C1273.59 301.75 1273.74 301.811 1273.87 301.934C1274 302.056 1274.06 302.203 1274.06 302.375C1274.06 302.547 1274 302.694 1273.87 302.816C1273.74 302.939 1273.59 303 1273.41 303Z" fill="#00B4DA"/>
</svg>
