<svg width="45" height="44" viewBox="0 0 45 44" fill="none" xmlns="http://www.w3.org/2000/svg">
<path d="M22.5014 0.00140632C10.0708 0.00140632 0 10.0806 0 22.5028C0 32.4498 6.44665 40.8808 15.3811 43.8552C16.5104 44.0676 16.9182 43.3715 16.9182 42.7696C16.9182 42.2351 16.9056 40.8218 16.8972 38.9457C10.6347 40.3014 9.31558 35.9207 9.31558 35.9207C8.29036 33.3274 6.81089 32.6313 6.81089 32.6313C4.77452 31.2404 6.97262 31.2699 6.97262 31.2699C9.22839 31.4232 10.4153 33.5834 10.4153 33.5834C12.4222 37.0261 15.6807 36.0304 16.9703 35.451C17.1672 34.001 17.7536 33.0039 18.3921 32.4484C13.3968 31.8845 8.1441 29.9508 8.1441 21.3285C8.1441 18.866 9.01603 16.8606 10.4575 15.2855C10.2086 14.7215 9.44637 12.4292 10.6558 9.32965C10.6558 9.32965 12.5389 8.72914 16.8437 11.6374C18.6452 11.1382 20.5578 10.8893 22.4691 10.8766C24.3817 10.8893 26.2929 11.1396 28.0944 11.6374C32.3739 8.72914 34.2556 9.32965 34.2556 9.32965C35.4636 12.4292 34.7014 14.7201 34.482 15.2855C35.9094 16.8606 36.7814 18.8674 36.7814 21.3285C36.7814 29.9705 31.5217 31.8761 26.5207 32.4259C27.3026 33.0996 28.0353 34.4848 28.0353 36.5873C28.0353 39.5969 28.0072 42.0214 28.0072 42.7541C28.0072 43.3391 28.401 44.0423 29.5598 43.8159C38.5604 40.8724 45 32.4344 45 22.5014C45 10.0792 34.9292 0 22.4986 0L22.5014 0.00140632Z" fill="#ACF0FF"/>
</svg>
