<svg width="45" height="46" viewBox="0 0 45 46" fill="none" xmlns="http://www.w3.org/2000/svg">
<path d="M38.3344 38.3498H31.6786V27.9056C31.6786 25.4152 31.6266 22.2145 28.1981 22.2145C24.7275 22.2145 24.1987 24.9159 24.1987 27.7214V38.3484H17.5345V16.8736H23.9358V19.8028H24.0216C24.9159 18.1111 27.0914 16.3322 30.337 16.3322C37.0884 16.3322 38.3414 20.7773 38.3414 26.557V38.3484L38.3344 38.3498ZM10.0055 13.9388C7.85812 13.9388 6.13687 12.202 6.13687 10.0631C6.13687 7.93125 7.86516 6.19734 10.0055 6.19734C12.1458 6.19734 13.8797 7.93125 13.8797 10.0631C13.8797 12.202 12.1458 13.9388 10.0055 13.9388ZM13.3439 38.3498H6.66562V16.875H13.3439V38.3498ZM41.6756 0H3.31875C1.48641 0 0 1.44984 0 3.24422V41.7572C0 43.5516 1.48641 45.0014 3.31875 45.0014H41.6686C43.4981 45.0014 45 43.5516 45 41.7572V3.24422C45 1.44984 43.4981 0 41.6686 0L41.6756 0Z" fill="#ACF0FF"/>
</svg>
